<?xml version="1.0" encoding="UTF-8" standalone="no"?>
<!-- Created with Inkscape (http://www.inkscape.org/) -->

<svg
   width="460.25256mm"
   height="249.80281mm"
   viewBox="0 0 460.25256 249.80281"
   version="1.1"
   id="svg1"
   xml:space="preserve"
   inkscape:version="1.4.4 (dcaf3e7, 2026-05-05)"
   sodipodi:docname="tyermans.svg"
   xmlns:inkscape="http://www.inkscape.org/namespaces/inkscape"
   xmlns:sodipodi="http://sodipodi.sourceforge.net/DTD/sodipodi-0.dtd"
   xmlns:xlink="http://www.w3.org/1999/xlink"
   xmlns="http://www.w3.org/2000/svg"
   xmlns:svg="http://www.w3.org/2000/svg"><sodipodi:namedview
     id="namedview1"
     pagecolor="#ffffff"
     bordercolor="#000000"
     borderopacity="0.25"
     inkscape:showpageshadow="2"
     inkscape:pageopacity="0.0"
     inkscape:pagecheckerboard="0"
     inkscape:deskcolor="#d1d1d1"
     inkscape:document-units="mm"
     inkscape:zoom="0.25"
     inkscape:cx="1958"
     inkscape:cy="1120"
     inkscape:window-width="1920"
     inkscape:window-height="869"
     inkscape:window-x="0"
     inkscape:window-y="30"
     inkscape:window-maximized="0"
     inkscape:current-layer="group-R5"><inkscape:page
       x="0"
       y="0"
       width="460.25256"
       height="249.80281"
       id="page2"
       margin="0"
       bleed="0" /></sodipodi:namedview><defs
     id="defs1"><linearGradient
       x1="0"
       y1="0"
       x2="1"
       y2="0"
       gradientUnits="userSpaceOnUse"
       gradientTransform="matrix(-5416.6,3135.95,3135.95,5416.6,15192.1,8295.7)"
       spreadMethod="pad"
       id="linearGradient7"><stop
         style="stop-opacity:1;stop-color:#757475"
         offset="0"
         id="stop5" /><stop
         style="stop-opacity:1;stop-color:#e7496c"
         offset="0.525"
         id="stop6" /><stop
         style="stop-opacity:1;stop-color:#836e74"
         offset="1"
         id="stop7" /></linearGradient><linearGradient
       x1="0"
       y1="0"
       x2="1"
       y2="0"
       gradientUnits="userSpaceOnUse"
       gradientTransform="matrix(-5136.42,-1085.34,-1085.34,5136.42,13855.2,13085.8)"
       spreadMethod="pad"
       id="linearGradient12"><stop
         style="stop-opacity:1;stop-color:#757475"
         offset="0"
         id="stop11" /><stop
         style="stop-opacity:1;stop-color:#e7496c"
         offset="1"
         id="stop12" /></linearGradient><linearGradient
       x1="0"
       y1="0"
       x2="1"
       y2="0"
       gradientUnits="userSpaceOnUse"
       gradientTransform="matrix(-3194.27,-674.959,-674.959,3194.27,12526.9,7927.1)"
       spreadMethod="pad"
       id="linearGradient16"><stop
         style="stop-opacity:1;stop-color:#757475"
         offset="0"
         id="stop15" /><stop
         style="stop-opacity:1;stop-color:#e7496c"
         offset="1"
         id="stop16" /></linearGradient><linearGradient
       x1="0"
       y1="0"
       x2="1"
       y2="0"
       gradientUnits="userSpaceOnUse"
       gradientTransform="matrix(-3647.8,-770.79,-770.79,3647.8,17423.1,8883.5)"
       spreadMethod="pad"
       id="linearGradient20"><stop
         style="stop-opacity:1;stop-color:#757475"
         offset="0"
         id="stop19" /><stop
         style="stop-opacity:1;stop-color:#e7496c"
         offset="1"
         id="stop20" /></linearGradient><linearGradient
       inkscape:collect="always"
       xlink:href="#linearGradient7"
       id="linearGradient26-1"
       gradientUnits="userSpaceOnUse"
       gradientTransform="matrix(-5416.6,3135.95,3135.95,5416.6,15192.1,8295.7)"
       x1="0"
       y1="0"
       x2="1"
       y2="0"
       spreadMethod="pad" /><clipPath
       clipPathUnits="userSpaceOnUse"
       id="clipPath7-4-0"><path
         d="m 11002.5,9643.2005 c 132.6,3.4 277.1,29 430.2,78 650.9,207.3 1189,480.8005 1652.1,668.8005 90.5,36.4 178.1,69.5 262.7,99.3 -84.5,-30 -172,-63.2 -262.3,-99.8 -462.7,-187.8 -1001.3,-462.3005 -1652.7,-669.1005 -153,-48.7 -297.5,-74 -430,-77.2 m -651.8,266.6 c -70.6,89.9 -119.5,201.6005 -142.8,333.4005 -17.7,100.5 -6.5,208.4 29.2,310.4 -35.2,-101.6 -46,-209 -28.2,-309.2 22.8,-132.3 71.4,-244.4 141.8,-334.6005 m 5228.1,295.0005 c -379.9,407.5 -795.4,522.7 -1133.4,522.7 -45.3,0 -89.2,-2.1 -131.5,-5.8 -85.7,-7.5 -183.6,-21.4 -292.4,-42.8 108.8,21.6 206.6,35.7 292.4,43.5 42.3,3.7 86.4,5.8 131.8,5.8 337.9,0 753.7,-114.8 1133.1,-523.4 m -3923.1,345.4 c -238.4,259.4 -463.4,391.1 -661.9,434.9 198.5,-43.3 423.3,-174.5 661.6,-433 0.1,-0.7 0.2,-1.3 0.3,-1.9"
         id="path7-47-9" /></clipPath><clipPath
       clipPathUnits="userSpaceOnUse"
       id="clipPath10-6-6"><path
         d="m 10584.2,8947.2005 c -267.8,0 -558.3,67.6 -815.0098,282.9 -411.23,344.9 -473.64,721.5 -488.9,971.3005 -18.58,304.3 60.26,699.6 529.32,1010.9 208.9898,139.3 431.0898,204.8 649.0898,204.8 334.7,0 659.8,-154.3 913.5,-432.7 111,-121.8 268.4,-357.3 283.2,-432.3 -238.3,258.5 -463.1,389.7 -661.6,433 -52.5,11.6 -103.2,17 -151.8,17 -300.8,0 -521.3,-207.7 -604.9,-448.5 -35.7,-102 -46.9,-209.9 -29.2,-310.4 23.3,-131.8 72.2,-243.5005 142.8,-333.4005 135.8,-174.2 352.7,-267 621,-267 10.3,0 20.5,0.1 30.8,0.4 132.5,3.2 277,28.5 430,77.2 651.4,206.8 1190,481.3005 1652.7,669.1005 90.3,36.6 177.8,69.8 262.3,99.8 254.7,90.1 481.5,151.5 674,189.6 108.8,21.4 206.7,35.3 292.4,42.8 42.3,3.7 86.2,5.8 131.5,5.8 338,0 753.5,-115.2 1133.4,-522.7 136.9,-147.5 269.1,-333.1005 391.1,-565.5005 -271.4,335.1 -493.4,445.8005 -872.8,553.9005 -154.5,44 -315.2,75.1 -505.4,75.1 -258.8,0 -572.4,-57.5 -1000,-218.4 -734.9,-276.3005 -1731.3,-763.9005 -2211.9,-938.1005 -149.8,-54.5 -454.2,-164.6 -795.6,-164.6"
         id="path10-1-4" /></clipPath><linearGradient
       inkscape:collect="always"
       xlink:href="#linearGradient12"
       id="linearGradient28-5"
       gradientUnits="userSpaceOnUse"
       gradientTransform="matrix(-5136.42,-1085.34,-1085.34,5136.42,13855.2,13085.8)"
       x1="0"
       y1="0"
       x2="1"
       y2="0"
       spreadMethod="pad" /><clipPath
       clipPathUnits="userSpaceOnUse"
       id="clipPath12-1-8"><path
         d="m 13664.3,11844.801 c -174.3,47.4 -327.8,161.6 -498.9,361 -386.6,450 -656.3,742.4 -926.3,937.2 270.4,-194.7 540.6,-487 927,-936.6 170.5,-199.4 324,-313.8 498.2,-361.6 m -5130.3698,1437.2 c 130.54,13.4 271.65,29.8 428.84,53.5 938.99,138.1 1420.2298,210.9 1814.7298,210.9 252.1,0 468.7,-29.7 746.9,-91.1 38.7,-8.6 76.3,-17.7 112.8,-27.6 -36.9,9.9 -74.7,19.2 -113.9,27.8 -277.6,61 -493.8,90.6 -744.9,90.6 -394.5,0 -875.2698,-72.9 -1816.8998,-211.3 -156.33,-23.1 -296.98,-40.8 -427.57,-52.8"
         id="path12-3-8" /></clipPath><clipPath
       clipPathUnits="userSpaceOnUse"
       id="clipPath14-9-9"><path
         d="m 13562.5,11718.901 c -380.9,0 -610.1,211.6 -799.7,387.7 -589.5,550.9 -930.4,725.5 -1537.3,725.5 -168.8,0 -358.1,-13.5 -579.1,-36.1 -806.2698,-84.5 -1135.0698,-246.7 -1408.1398,-246.7 -87.15,0 -168.61,16.5 -258.12,57.4 -173.76,79.5 -379.24,254.1 -530.4,666.9 27.59,2.7 55.64,5.5 84.19,8.4 130.59,12 271.24,29.7 427.57,52.8 941.63,138.4 1422.3998,211.3 1816.8998,211.3 251.1,0 467.3,-29.6 744.9,-90.6 39.2,-8.6 77,-17.9 113.9,-27.8 226.6,-61.3 414.3,-149.5 601.9,-284.7 270,-194.8 539.7,-487.2 926.3,-937.2 171.1,-199.4 324.6,-313.6 498.9,-361 66.1,-18.2 135.2,-26.8 209.4,-26.8 75.4,0 155.9,8.9 244,25.6 -216,-88.9 -398.4,-124.7 -555.2,-124.7"
         id="path14-43-6" /></clipPath><linearGradient
       inkscape:collect="always"
       xlink:href="#linearGradient16"
       id="linearGradient30-0"
       gradientUnits="userSpaceOnUse"
       gradientTransform="matrix(-3194.27,-674.959,-674.959,3194.27,12526.9,7927.1)"
       x1="0"
       y1="0"
       x2="1"
       y2="0"
       spreadMethod="pad" /><clipPath
       clipPathUnits="userSpaceOnUse"
       id="clipPath16-1-3"><path
         d="m 12008.7,7679.9004 c 253.1,159.5 416.3,349.7001 479.5,430.2001 -0.5,-1.1 -1,-2.1 -1.5,-3.2 -64.6,-81.9 -227.5,-269.7001 -478,-427.0001 m -1869.9,119.8 c -0.4,0.3 -0.8,0.6 -1.2,0.9 1.9,0.1 3.9,0.3 5.9,0.4 0.1,-0.1 0.3,-0.2 0.4,-0.3 -2.6,-0.5 -2.8,-0.5 -5.1,-1"
         id="path16-7-2" /></clipPath><clipPath
       clipPathUnits="userSpaceOnUse"
       id="clipPath18-1-1"><path
         d="m 10832.1,6983.5004 c -589.9,0 -1190.0698,284.8 -1611.6698,799.4 291.89,35.5 395.76,176.7 687.65,212.2 82.24,-87.1 159.2198,-149.2 235.4198,-194.1 -2,-0.1 -4,-0.3 -5.9,-0.4 0.4,-0.3 0.8,-0.6 1.2,-0.9 -0.2,-0.1 -0.3,-0.1 -0.5,-0.1 276.8,-222.8 754.4,-357.8 1122.3,-357.8 88.3,0 170.3,7.7 241.7,23.9 195.7,45.5 365.1,125.1 506.4,214.2 250.5,157.3 413.4,345.1001 478,427.0001 -67.6,-142.5001 -379.1,-795.9001 -1098.9,-1034.5001 -180.1,-59.9 -367.4,-88.9 -555.7,-88.9"
         id="path18-46-3" /></clipPath><linearGradient
       inkscape:collect="always"
       xlink:href="#linearGradient20"
       id="linearGradient32-8"
       gradientUnits="userSpaceOnUse"
       gradientTransform="matrix(-3647.8,-770.79,-770.79,3647.8,17423.1,8883.5)"
       x1="0"
       y1="0"
       x2="1"
       y2="0"
       spreadMethod="pad" /><clipPath
       clipPathUnits="userSpaceOnUse"
       id="clipPath20-2-9"><path
         d="m 13676.1,8582.0005 c 511.5,291.1 884.6,414.2 1221.8,414.2 124.1,0 243.3,-16.7 362.8,-47.8 -118.9,30.7 -237.6,47.2 -361.1,47.2 -336.7,0 -709.2,-122.5 -1220.1,-412.7 -1.1,-0.3 -2.3,-0.6 -3.4,-0.9"
         id="path20-2-4" /></clipPath><linearGradient
       inkscape:collect="always"
       xlink:href="#linearGradient7"
       id="linearGradient33"
       gradientUnits="userSpaceOnUse"
       gradientTransform="matrix(-5416.6,3135.95,3135.95,5416.6,15192.1,8295.7)"
       x1="0"
       y1="0"
       x2="1"
       y2="0"
       spreadMethod="pad" /><linearGradient
       inkscape:collect="always"
       xlink:href="#linearGradient12"
       id="linearGradient34"
       gradientUnits="userSpaceOnUse"
       gradientTransform="matrix(-5136.42,-1085.34,-1085.34,5136.42,13855.2,13085.8)"
       x1="0"
       y1="0"
       x2="1"
       y2="0"
       spreadMethod="pad" /><linearGradient
       inkscape:collect="always"
       xlink:href="#linearGradient16"
       id="linearGradient35"
       gradientUnits="userSpaceOnUse"
       gradientTransform="matrix(-3194.27,-674.959,-674.959,3194.27,12526.9,7927.1)"
       x1="0"
       y1="0"
       x2="1"
       y2="0"
       spreadMethod="pad" /></defs><g
     id="g1"
     inkscape:groupmode="layer"
     inkscape:label="1"
     transform="matrix(0.26458333,0,0,0.26458335,-152.00414,-112.18334)"><g
       id="group-R5"><path
         id="path3-7-2"
         d="m 797.98376,805.38134 c 38.3867,3.36 94.92,16.34666 163.8267,44.29333 61.69334,25.04 133.50674,61.64 220.36004,89.21333 85.56,27.21333 151.04,-0.42667 163.28,-69.70667 12.24,-69.51999 -78.9733,-165.25333 -193.28,-40.87999 20.0667,-106.36 71.76,-171.34667 208.8133,-193.21333 -42.8133,-13.54667 -106.7466,-30.74667 -183.7733,-24.34667 -39.0267,3.29333 -71.2667,19.74667 -105.2533,35.53333 -52.0534,24.10667 -103.93344,49.14667 -156.30674,42.86667 -31.6933,-3.78667 -48.8933,-10.32 -93.44,-33.85333 54.92,10.93333 88.16,-0.32 128.9067,-47.78667 93.13334,-108.41333 135.38664,-148.22666 218.94664,-166.62666 95.1734,-20.93333 136.12,-14.09333 341.5734,16.09333 91.5133,13.48 142.768,13.42667 216.824,-6.02667 8.1386,-2.54666 16.34,-4.78666 24.6013,-6.96 3.8533,-1.12 11.4947,-2.97333 11.6187,-2.85333 65.048,-15.22666 134.5852,-24.96 203.9012,-8.76 145.316,33.96 199.08,86.05333 251.8614,151.64 5.172,6.42666 9.768,13.41333 14.476,20.82666 15.08,23.58667 28.188,49.18667 38.7933,75.65334 3.328,8.08 6.1587,15.68 8.6427,23.21333 7.7053,21.52 14.1933,44.98666 19.2053,69.4 1.872,8.73333 3.328,16.72 4.448,24.41333 3.676,21.98667 5.9307,42.61333 6.8827,63 0.6493,8.01333 0.8186,15.76 0.9893,23.76 0.148,3.98666 0.16,7.94666 0.16,11.92 0,23.97333 -1.4293,48.16 -4.2507,71.86666 -0.7786,7.66667 -1.88,15.64 -3.3666,24.34667 -3.8827,25.4267 -9.656,50.7867 -17.0147,74.8533 -2.692,9.1867 -5.7467,17.9467 -8.3307,25.3467 -11.048,30.8667 -24.668,59.8 -40.4853,86 l -0.3347,0.5467 c -5.6933,9.1466 -11.2693,17.5333 -17.1573,25.8 -19.036,26.4933 -40.2427,49.2933 -63.3133,67.8933 -75.6387,60.9867 -156.9707,77.8133 -197.8107,86.1733 -53.992,11.04 -111.0186,12.3334 -169.4013,2.3334 -0.061,0.1866 -14.9106,-2.1734 -18.3266,-2.92 -8.388,-1.7334 -16.4027,-4.28 -24.6027,-6.4534 -50.572,-11.3733 -120.4027,-23.9866 -189.2413,-17.52 -169.4827,15.84 -252.2347,51.0667 -349.7814,19.76 -59.4533,-19.1466 -139.3466,-98.48 -169.2933,-200.56 13.1067,16.72 58.84,68.9734 131.4667,85.68 49.32,11.3734 136.12,-7.7066 182.0266,-44.48 -25.6,-1.4933 -61.3733,-2.0533 -108.4666,-17.2133 -80.2134,-25.84 -177.6934,-94.3733 -269.33344,-156.44 -122.44,-82.74667 -215.76,-102.50667 -250.12,-106.10667 -24.7199,-2.68 -103.5599,-8.57333 -152.3999,39.26667 67.9066,-132.21333 159.8533,-154.57333 223.4799,-148.98666"
         style="fill:#d61e25;fill-opacity:1;fill-rule:nonzero;stroke:none;stroke-width:0.133333" /><path
         id="path5-9-9"
         d="m 11002.5,9643.2 c 132.6,3.4 277.1,29 430.2,78 650.9,207.3 1189,480.8 1652.1,668.8 90.5,36.4 178.1,69.5 262.7,99.3 -84.5,-30 -172,-63.2 -262.3,-99.8 -462.7,-187.8 -1001.3,-462.3 -1652.7,-669.1 -153,-48.7 -297.5,-74 -430,-77.2 m -651.8,266.6 c -70.6,89.9 -119.5,201.6 -142.8,333.4 -17.7,100.5 -6.5,208.4 29.2,310.4 -35.2,-101.6 -46,-209 -28.2,-309.2 22.8,-132.3 71.4,-244.4 141.8,-334.6 m 5228.1,295 c -379.9,407.5 -795.4,522.7 -1133.4,522.7 -45.3,0 -89.2,-2.1 -131.5,-5.8 -85.7,-7.5 -183.6,-21.4 -292.4,-42.8 108.8,21.6 206.6,35.7 292.4,43.5 42.3,3.7 86.4,5.8 131.8,5.8 337.9,0 753.7,-114.8 1133.1,-523.4 m -3923.1,345.4 c -238.4,259.4 -463.4,391.1 -661.9,434.9 198.5,-43.3 423.3,-174.5 661.6,-433 0.1,-0.7 0.2,-1.3 0.3,-1.9"
         style="fill:url(#linearGradient33);fill-opacity:1;fill-rule:nonzero;stroke:none"
         transform="matrix(-0.13333333,0,0,-0.13333333,2706.5038,2234.9413)"
         clip-path="url(#clipPath7-4-0)" /><path
         id="path8-7-7"
         d="m 10584.2,8947.2 c -267.8,0 -558.3,67.6 -815.01,282.9 -411.23,344.9 -473.64,721.5 -488.9,971.3 -18.58,304.3 60.26,699.6 529.32,1010.9 208.99,139.3 431.09,204.8 649.09,204.8 334.7,0 659.8,-154.3 913.5,-432.7 111,-121.8 268.4,-357.3 283.2,-432.3 -238.3,258.5 -463.1,389.7 -661.6,433 -52.5,11.6 -103.2,17 -151.8,17 -300.8,0 -521.3,-207.7 -604.9,-448.5 -35.7,-102 -46.9,-209.9 -29.2,-310.4 23.3,-131.8 72.2,-243.5 142.8,-333.4 135.8,-174.2 352.7,-267 621,-267 10.3,0 20.5,0.1 30.8,0.4 132.5,3.2 277,28.5 430,77.2 651.4,206.8 1190,481.3 1652.7,669.1 90.3,36.6 177.8,69.8 262.3,99.8 254.7,90.1 481.5,151.5 674,189.6 108.8,21.4 206.7,35.3 292.4,42.8 42.3,3.7 86.2,5.8 131.5,5.8 338,0 753.5,-115.2 1133.4,-522.7 136.9,-147.5 269.1,-333.1 391.1,-565.5 -271.4,335.1 -493.4,445.8 -872.8,553.9 -154.5,44 -315.2,75.1 -505.4,75.1 -258.8,0 -572.4,-57.5 -1000,-218.4 -734.9,-276.3 -1731.3,-763.9 -2211.9,-938.1 -149.8,-54.5 -454.2,-164.6 -795.6,-164.6"
         style="fill:url(#linearGradient26-1);fill-opacity:1;fill-rule:nonzero;stroke:none"
         transform="matrix(-0.13333333,0,0,-0.13333333,2706.5038,2234.9413)"
         clip-path="url(#clipPath10-6-6)" /><path
         id="path11-6-9"
         d="m 13664.3,11844.8 c -174.3,47.4 -327.8,161.6 -498.9,361 -386.6,450 -656.3,742.4 -926.3,937.2 270.4,-194.7 540.6,-487 927,-936.6 170.5,-199.4 324,-313.8 498.2,-361.6 M 8533.93,13282 c 130.54,13.4 271.65,29.8 428.84,53.5 938.99,138.1 1420.23,210.9 1814.73,210.9 252.1,0 468.7,-29.7 746.9,-91.1 38.7,-8.6 76.3,-17.7 112.8,-27.6 -36.9,9.9 -74.7,19.2 -113.9,27.8 -277.6,61 -493.8,90.6 -744.9,90.6 -394.5,0 -875.27,-72.9 -1816.9,-211.3 -156.33,-23.1 -296.98,-40.8 -427.57,-52.8"
         style="fill:url(#linearGradient34);fill-opacity:1;fill-rule:nonzero;stroke:none"
         transform="matrix(-0.13333333,0,0,-0.13333333,2706.5038,2234.9413)"
         clip-path="url(#clipPath12-1-8)" /><path
         id="path13-8-2"
         d="m 13562.5,11718.9 c -380.9,0 -610.1,211.6 -799.7,387.7 -589.5,550.9 -930.4,725.5 -1537.3,725.5 -168.8,0 -358.1,-13.5 -579.1,-36.1 -806.27,-84.5 -1135.07,-246.7 -1408.14,-246.7 -87.15,0 -168.61,16.5 -258.12,57.4 -173.76,79.5 -379.24,254.1 -530.4,666.9 27.59,2.7 55.64,5.5 84.19,8.4 130.59,12 271.24,29.7 427.57,52.8 941.63,138.4 1422.4,211.3 1816.9,211.3 251.1,0 467.3,-29.6 744.9,-90.6 39.2,-8.6 77,-17.9 113.9,-27.8 226.6,-61.3 414.3,-149.5 601.9,-284.7 270,-194.8 539.7,-487.2 926.3,-937.2 171.1,-199.4 324.6,-313.6 498.9,-361 66.1,-18.2 135.2,-26.8 209.4,-26.8 75.4,0 155.9,8.9 244,25.6 -216,-88.9 -398.4,-124.7 -555.2,-124.7"
         style="fill:url(#linearGradient28-5);fill-opacity:1;fill-rule:nonzero;stroke:none"
         transform="matrix(-0.13333333,0,0,-0.13333333,2706.5038,2234.9413)"
         clip-path="url(#clipPath14-9-9)" /><path
         id="path15-2-2"
         d="m 12008.7,7679.9 c 253.1,159.5 416.3,349.7 479.5,430.2 -0.5,-1.1 -1,-2.1 -1.5,-3.2 -64.6,-81.9 -227.5,-269.7 -478,-427 m -1869.9,119.8 c -0.4,0.3 -0.8,0.6 -1.2,0.9 1.9,0.1 3.9,0.3 5.9,0.4 0.1,-0.1 0.3,-0.2 0.4,-0.3 -2.6,-0.5 -2.8,-0.5 -5.1,-1"
         style="fill:url(#linearGradient35);fill-opacity:1;fill-rule:nonzero;stroke:none"
         transform="matrix(-0.13333333,0,0,-0.13333333,2706.5038,2234.9413)"
         clip-path="url(#clipPath16-1-3)" /><path
         id="path17-99-3"
         d="m 10832.1,6983.5 c -589.9,0 -1190.07,284.8 -1611.67,799.4 291.89,35.5 395.76,176.7 687.65,212.2 82.24,-87.1 159.22,-149.2 235.42,-194.1 -2,-0.1 -4,-0.3 -5.9,-0.4 0.4,-0.3 0.8,-0.6 1.2,-0.9 -0.2,-0.1 -0.3,-0.1 -0.5,-0.1 276.8,-222.8 754.4,-357.8 1122.3,-357.8 88.3,0 170.3,7.7 241.7,23.9 195.7,45.5 365.1,125.1 506.4,214.2 250.5,157.3 413.4,345.1 478,427 -67.6,-142.5 -379.1,-795.9 -1098.9,-1034.5 -180.1,-59.9 -367.4,-88.9 -555.7,-88.9"
         style="fill:url(#linearGradient30-0);fill-opacity:1;fill-rule:nonzero;stroke:none"
         transform="matrix(-0.13333333,0,0,-0.13333333,2706.5038,2234.9413)"
         clip-path="url(#clipPath18-1-1)" /><path
         id="path19-8-1"
         d="m 13676.1,8582 c 511.5,291.1 884.6,414.2 1221.8,414.2 124.1,0 243.3,-16.7 362.8,-47.8 -118.9,30.7 -237.6,47.2 -361.1,47.2 -336.7,0 -709.2,-122.5 -1220.1,-412.7 -1.1,-0.3 -2.3,-0.6 -3.4,-0.9"
         style="fill:url(#linearGradient32-8);fill-opacity:1;fill-rule:nonzero;stroke:none"
         transform="matrix(-0.13333333,0,0,-0.13333333,2706.5038,2234.9413)"
         clip-path="url(#clipPath20-2-9)" /><path
         id="path23-7-3"
         d="m 1785.7318,1176.5547 c 49.5147,12.1333 111.4173,-7.4267 153.4333,-67.0934 34.1707,-48.5333 61.6347,-126.5333 61.6347,-213.39997 0,-86.86666 -24.592,-161.26666 -61.6347,-213.39999 -47.592,-66.97333 -109.6613,-83.08 -153.4333,-72.06667 -63.6866,16.02667 -155.3386,122.02667 -155.3386,285.46666 0,163.42667 82.9373,262.74667 155.3386,280.49337 z m 12.932,-674.92002 c 35.7947,0 69.8787,10.42666 101.1613,29.41333 30.9693,18.69333 59.16,45.92 83.132,79.69333 50.8853,71.76 82.644,173.10666 82.644,285.31999 0,112.22667 -31.7587,213.54667 -82.644,285.29337 -23.972,33.7866 -52.1627,61.0266 -83.132,79.6933 -31.2826,19 -65.3666,29.4267 -101.1613,29.4267 -147.256,0 -261.832,-176.64 -261.832,-394.41337 0,-217.91999 114.576,-394.42665 261.832,-394.42665"
         style="fill:#ffffff;fill-opacity:1;fill-rule:nonzero;stroke:none;stroke-width:0.133333" /><path
         id="path24-1-2"
         d="m 2080.4491,1188.688 0.148,-0.16 c 12.0027,-15.88 22.8893,-33.48 32.38,-52.3067 0.9413,-1.56 1.7173,-2.96 2.492,-4.5066 v -0.1467 c 2.492,-4.84 4.9867,-9.6533 7.1653,-14.8133 2.1774,-4.6534 4.356,-9.48 6.2347,-14.4534 7.1507,-17.1333 13.38,-35.0266 18.6733,-53.6933 0.3134,-1.1067 0.628,-2.2 0.9294,-3.28 v -0.1467 c 1.5626,-5.1333 2.7933,-10.28 3.888,-15.7333 v -0.1467 c 2.032,-7.16 3.588,-14.3333 4.9786,-21.8 -0.14,-0.16 -0.14,-0.16 0,-0.16 4.0507,-19.4533 6.8507,-39.35997 8.7214,-60.06663 0,-1.09334 0.148,-2.02667 0.148,-3.12 V 944.008 c 0.4813,-4.52 0.7893,-8.88 0.7893,-13.4 0,0 0,0 0,-0.14667 0.4667,-3.73333 0.6213,-7.78666 0.6213,-11.66666 0,0 0,0 0,-0.17334 0.46,-7.45333 0.628,-14.93333 0.628,-22.56 0,-10.74666 -0.328,-21.32 -1.104,-31.76 v -0.14666 c 0.16,-0.46667 0.16,-0.64 0,-1.10667 -0.1453,-4.49333 -0.3066,-8.86667 -0.7613,-13.37333 V 849.528 l -0.4813,-5.14667 c -2.1654,-25.51999 -6.0614,-50.10666 -11.508,-73.77333 -0.3214,-1.56 -0.628,-3.12 -1.096,-4.69333 -0.936,-4.17333 -1.8574,-8.37333 -3.1014,-12.44 -0.6213,-2.62667 -1.2493,-5.28 -2.192,-7.77333 v -0.16 c -5.132,-19.29334 -11.6813,-37.8 -18.9853,-55.41333 -1.104,-2.8 -2.1733,-5.61334 -3.4293,-8.24 -2.0187,-4.53334 -3.8894,-8.88 -6.076,-13.24 -2.9534,-6.37334 -6.06,-12.45334 -9.4814,-18.52 -10.58,-19.93334 -22.5826,-38.13334 -35.6413,-54.64 -0.1613,-0.32 -0.4813,-0.61334 -0.7893,-0.92 -4.044,-5.29334 -8.24,-10.28 -12.7587,-14.94667 -3.7347,-4.36 -7.7773,-8.54667 -11.8347,-12.61333 4.0574,4.36 7.9387,8.85333 11.696,13.54666 4.036,4.81334 7.9187,9.78667 11.6614,15.10667 11.348,15.24 21.6266,31.73333 31.1226,49.46667 v 0.17333 c 4.8187,9.02667 9.3427,18.37333 13.7,28 1.5507,3.58667 3.1147,7.17333 4.512,10.74667 0.936,2.04 1.8707,4.05333 2.6587,6.08 6.048,15.25333 11.348,30.81333 16.02,47.33333 v 0.13333 c 3.4213,11.52 6.376,23.37333 9.0427,35.50667 4.6506,21.30666 8.0786,43.41333 10.0986,66.13333 v 0.17333 c 0.948,9.16 1.724,18.50667 2.1907,28 0.4493,9.50667 0.6213,19 0.6213,28.65333 0,8.54667 -0.172,17.13334 -0.46,25.52 -0.1613,2.33334 -0.328,4.66667 -0.4813,7.01334 -0.1467,4.96 -0.468,9.78666 -0.9227,14.62666 -0.1733,1.57334 -0.1733,2.96 -0.32,4.36 -2.0333,23.65333 -5.4413,46.70667 -10.2866,68.79997 0,0 0,0 0,0.1467 -0.1387,1.4133 -0.44,2.8 -0.9147,4.2267 -1.7187,8.5466 -3.756,16.7866 -6.0747,25.04 l -0.3146,1.08 c -5.768,21.4933 -12.7574,41.88 -20.8574,61.3466 v 0.1467 c -0.468,1.0933 -0.9426,2.3333 -1.5573,3.2667 v 0.16 c -2.7947,7 -5.9213,13.7066 -9.1907,20.24 -0.1533,0.6 -0.44,1.08 -0.7813,1.5466 -9.7893,20.5467 -21.172,39.5334 -33.6147,56.9734 1.256,-0.7734 2.6454,-1.4 3.8947,-1.8667 z m -183.664,101.7867 c 28.6307,-2.4667 56.192,-11.9867 81.7147,-27.08 v -0.16 c -4.9867,-15.56 -16.0467,-29.7067 -31.284,-39.52 5.4333,-5.16 10.5933,-10.7467 15.7186,-16.6534 16.34,11.04 28.6374,26.1467 35.488,43.1067 15.096,-11.04 29.2587,-24.1467 42.6574,-39.2 -2.96,-25.4 -21.0254,-45.4667 -39.8574,-58.08 3.9027,-6.3867 7.4774,-13.0933 10.8987,-19.9333 19.7773,12.4533 38.288,31.4266 47.3107,55.2533 14.9573,-19.92 28.176,-42.3333 39.5573,-66.76 -6.7093,-13.08 -28.344,-41.8667 -58.6987,-57.44 2.3387,-7.16 4.5187,-14.6267 6.5374,-22.1067 28.3293,13.2267 50.2826,35.9467 63.2026,53.8667 7.784,-19.3067 14.3267,-39.5467 19.6147,-60.72 -10.5947,-28.6267 -38.3093,-47.32 -69.7333,-56.94667 1.0706,-7.49333 2.0186,-14.93333 2.648,-22.58666 29.2653,8.41333 56.6386,23.50666 74.376,46.08003 3.9026,-20.24004 6.716,-41.1067 8.2533,-62.5867 0,-0.14667 0,-0.14667 0,-0.14667 -13.5267,-24.76 -44.188,-44.36 -79.676,-52.29333 0,-7.8 -0.3133,-15.41333 -0.7747,-23.05333 32.2187,6.09333 61.4774,20.38666 81.8534,39.85333 0.1613,-2.49333 0.1613,-4.81333 0.1613,-7.30667 0,-12.16 -0.3013,-23.97333 -1.076,-35.96 v -0.14666 c -13.2387,-23.52 -47.6373,-47.93333 -87.8093,-58.53333 -1.216,-8.10667 -2.7867,-16.18667 -4.512,-23.97334 35.0266,7.17334 66.4706,23.8 88.572,43.26667 -2.6387,-20.54667 -6.536,-40.76 -11.3547,-60.06667 v -0.16 c -21.3187,-25.21333 -56.3453,-42.81333 -95.728,-48.4 -2.7947,-7.93333 -5.7613,-15.71999 -9.0227,-23.19999 34.544,2.65333 67.232,13.85333 93.0894,31.13333 -5.9347,-17.28 -12.4707,-33.78667 -19.9227,-49.34667 -23.832,-21.01333 -60.8693,-34.41333 -101.188,-37.21333 -4.66,-7.92 -9.644,-15.41333 -14.7907,-22.72 v -0.14667 c 31.144,0.30667 65.06,6.37334 94.172,19.6 -10.272,-16.8 -21.4733,-32.2 -33.456,-46.05333 0,0 0,0 -0.168,-0.16 -27.0853,-19.16 -70.6733,-29.89333 -110.664,-28.78666 -8.548,-7.48 -17.424,-14.18667 -26.62,-19.93334 27.3947,-4.21333 58.9987,-2.97333 88.272,3.74667 -29.8946,-21.18667 -62.8826,-34.25333 -97.7613,-37.37333 h 52.768 c 25,0 49.5707,7.06666 70.4547,20.8 13.5613,8.93333 26.3413,19.64 39.6906,33.56 4.3654,-13.53334 13.3,-23.70667 25.2627,-34.28 7.0027,3.26666 13.8533,7.16 20.704,11.36 -17.0947,13.57333 -24.1333,28.18666 -26.164,44.22666 16.828,20.53333 30.8027,38.90667 43.72,64.76 13.4067,-18.84 28.0973,-36.05333 49.8307,-47.52 4.504,5.92 10.6986,13.64 14.7626,20.02667 -24.448,14.48 -41.0013,33.21333 -51.5733,53.42666 8.1067,19.01334 19.7067,48.90667 25.776,69.76 15.6787,-21.12 33.6893,-41.54666 64.9387,-51.94666 2.8013,6.84 6.6506,15.21333 9.0026,22.38666 -28.1026,7.94667 -50.444,33.77333 -65.0733,55.25333 -0.4733,0.62667 -0.9347,1.22667 -1.7107,1.86667 4.5107,19.77333 8.1134,40.32 10.5734,61.48 18.064,-18.84 45.312,-35.97333 76.588,-46.22667 1.564,7.32 2.96,14.77334 4.056,22.25334 -35.9547,12.46666 -65.5267,35.17333 -76.5947,56.81333 -0.3133,0.46666 -0.4547,0.93333 -0.936,1.4 0.6227,11.52 0.936,23.18666 0.936,35.02666 0,1.54667 0,3.26667 -0.1467,4.81334 21.0107,-18.97334 50.7454,-32.68 83.272,-38.12 0.6267,7.32 0.7747,14.93333 0.9347,22.56 -37.9733,7.01333 -71.3093,27.25333 -85.6107,53.38666 -0.16,0 -0.16,0 0,0.16 -1.256,17.90667 -3.2613,35.18667 -6.06,52.29333 24.752,-17.26666 56.792,-25.67999 87.7747,-27.07999 -0.7747,7.61333 -1.8653,15.10666 -3.1213,22.41333 -36.8627,2.65333 -74.228,16.3333 -92.7614,44.8267 v 0.1466 c -4.6586,19.48 -10.4186,38.2934 -16.968,56.2 25.6907,-15.1066 59.6267,-28.3066 93.724,-30.6666 -2.3386,7.9333 -4.9933,15.56 -7.6386,23.2 -44.8307,6.24 -87.6227,33.16 -102.7267,47.6266 -8.2533,17.76 -17.5907,34.4134 -27.5547,49.8 31.1294,-11.2133 64.5867,-17.5733 93.076,-18.36 -5.1253,8.2534 -10.2653,16.04 -15.732,23.6534 -34.3986,3.7466 -74.5506,15.1066 -105.5066,32.5333 -8.8814,10.5733 -18.3854,20.4 -28.1894,29.4267 24.748,-2.4934 52.924,-3.1067 78.1467,-2.1867 -10.748,8.5733 -21.7947,16.0267 -33.3293,22.4133 -32.3587,0.64 -64.8867,3.44 -83.5787,9.04 -2.3253,1.5467 -4.664,2.9734 -6.9893,4.2 -6.076,3.4267 -12.02,7.0267 -18.372,9.4934 -17.9414,6.96 -95.2694,3.1066 -95.2694,3.1066 1.872,-0.16 3.744,-0.32 5.6147,-0.4666"
         style="fill:#ffffff;fill-opacity:1;fill-rule:nonzero;stroke:none;stroke-width:0.133333" /><path
         id="path25-2-1"
         d="m 1791.8052,1152.8025 c 6.3453,1.52 21.9093,6.16 47.268,-1.2667 -44.5947,-79.56 -66.0507,-167.98657 -66.0507,-260.06657 0,-99.6934 24.7587,-187.6934 66.0507,-255.9734 -16.7467,-4.9333 -34.2147,-4.5466 -47.42,-0.3466 -77.8467,24.7066 -143.844,111.5333 -143.844,256.32 0,146.14657 80.6386,246.23997 143.996,261.33327"
         style="fill:#ffffff;fill-opacity:1;fill-rule:nonzero;stroke:none;stroke-width:0.133333" /></g></g></svg>
